<?xml version="1.0" standalone="no"?>
<!DOCTYPE svg PUBLIC "-//W3C//DTD SVG 20010904//EN"
 "http://www.w3.org/TR/2001/REC-SVG-20010904/DTD/svg10.dtd">
<svg version="1.0" xmlns="http://www.w3.org/2000/svg"
 width="4167.000000pt" height="4167.000000pt" viewBox="0 0 4167.000000 4167.000000"
 preserveAspectRatio="xMidYMid meet">

<g transform="translate(0.000000,4167.000000) scale(0.100000,-0.100000)"
fill="#000000" stroke="none">
<path d="M15080 20835 l0 -5755 5755 0 5755 0 0 5755 0 5755 -5755 0 -5755 0
0 -5755z m5385 4535 c361 -52 640 -241 770 -524 40 -85 78 -235 97 -381 20
-150 19 -7014 0 -7160 -70 -514 -302 -836 -691 -959 -142 -45 -263 -59 -451
-53 -226 7 -364 42 -553 140 -259 134 -418 328 -481 587 -63 258 -59 25 -63
3665 -4 3429 -3 3598 36 3796 72 365 257 615 571 771 92 46 238 93 345 112 94
17 321 20 420 6z m-2245 -272 l0 -232 -550 -3920 c-303 -2157 -552 -3931 -555
-3943 l-5 -23 605 0 605 0 0 -320 0 -320 -945 0 -945 0 0 346 0 347 535 3811
c294 2097 535 3820 535 3829 0 16 -41 17 -555 17 l-555 0 0 320 0 320 915 0
915 0 0 -232z m4630 -4263 l0 -4495 -350 0 -350 0 0 4495 0 4495 350 0 350 0
0 -4495z m2420 4155 l0 -340 -450 0 -450 0 0 -1685 0 -1685 455 0 455 0 0
-325 0 -325 -455 0 -455 0 0 -1815 0 -1815 455 0 455 0 0 -330 0 -330 -820 0
-820 0 0 4495 0 4495 815 0 815 0 0 -340z"/>
<path d="M20105 24719 c-197 -29 -283 -157 -315 -469 -8 -85 -10 -1027 -8
-3540 l3 -3425 22 -83 c56 -207 152 -304 332 -333 83 -14 190 -1 257 32 112
53 190 185 225 379 20 108 21 7019 1 7123 -39 207 -122 293 -304 317 -85 11
-131 11 -213 -1z"/>
</g>
</svg>
