<?xml version="1.0" standalone="no"?>
<!DOCTYPE svg PUBLIC "-//W3C//DTD SVG 20010904//EN"
 "http://www.w3.org/TR/2001/REC-SVG-20010904/DTD/svg10.dtd">
<svg version="1.0" xmlns="http://www.w3.org/2000/svg"
 width="4167.000000pt" height="4167.000000pt" viewBox="0 0 4167.000000 4167.000000"
 preserveAspectRatio="xMidYMid meet">

<g transform="translate(0.000000,4167.000000) scale(0.100000,-0.100000)"
fill="#000000" stroke="none">
<path d="M14760 20835 l0 -6075 6075 0 6075 0 0 6075 0 6075 -6075 0 -6075 0
0 -6075z m11500 0 l0 -5425 -5425 0 -5425 0 0 5425 0 5425 5425 0 5425 0 0
-5425z"/>
<path d="M20045 25364 c-365 -65 -665 -272 -808 -559 -85 -172 -122 -335 -137
-615 -8 -135 -10 -1219 -7 -3505 3 -3040 5 -3320 20 -3435 48 -357 135 -532
344 -701 132 -105 293 -181 487 -230 116 -30 376 -37 513 -16 446 71 716 327
833 791 58 230 55 17 55 3791 0 3735 2 3559 -51 3783 -91 386 -390 639 -829
702 -99 14 -326 11 -420 -6z m273 -644 c182 -24 265 -110 304 -317 20 -104 19
-7015 -1 -7123 -35 -194 -113 -326 -225 -379 -67 -33 -174 -46 -257 -32 -180
29 -276 126 -332 333 l-22 83 -3 3425 c-2 2513 0 3455 8 3540 26 253 83 376
203 435 82 40 195 52 325 35z"/>
<path d="M16390 25010 l0 -320 555 0 c514 0 555 -1 555 -17 0 -9 -241 -1732
-535 -3829 l-535 -3811 0 -347 0 -346 945 0 945 0 0 320 0 320 -605 0 -605 0
5 23 c3 12 252 1786 555 3943 l550 3920 0 232 0 232 -915 0 -915 0 0 -320z"/>
<path d="M22150 20835 l0 -4495 350 0 350 0 0 4495 0 4495 -350 0 -350 0 0
-4495z"/>
<path d="M23640 20835 l0 -4495 820 0 820 0 0 330 0 330 -455 0 -455 0 0 1815
0 1815 455 0 455 0 0 325 0 325 -455 0 -455 0 0 1685 0 1685 450 0 450 0 0
340 0 340 -815 0 -815 0 0 -4495z"/>
</g>
</svg>
